<svg xmlns="http://www.w3.org/2000/svg" width="430" height="210" viewBox="0 0 430 210"><rect width="100%" height="100%" fill="#DDDDDD"/><path fill="#999999" d="M93.785 110.075h12.54v-13.48q0-1.91.26-4.22zm18.67 0h5.19v4.07q0 .57-.38.99-.37.41-1.05.41h-3.76v10.06h-6.13v-10.06h-17.38q-.72 0-1.26-.44t-.68-1.1l-.74-3.56 19.52-26.08h6.67zm13.42-13.54-3.7-.66q.42-2.96 1.65-5.2 1.23-2.23 3.06-3.73 1.84-1.5 4.22-2.25 2.38-.76 5.12-.76 2.85 0 5.14.82 2.3.81 3.92 2.25t2.49 3.37q.87 1.94.87 4.19 0 1.97-.44 3.47-.44 1.49-1.27 2.6-.82 1.12-2.05 1.88-1.22.77-2.76 1.29 3.7 1.17 5.53 3.56 1.82 2.39 1.82 6.01 0 3.08-1.14 5.45-1.14 2.36-3.08 3.97t-4.49 2.44-5.4.83q-3.1 0-5.41-.72-2.31-.71-4.02-2.11-1.71-1.39-2.91-3.42-1.2-2.02-2.05-4.67l3.11-1.28q1.22-.52 2.29-.27 1.07.24 1.55 1.15.52 1 1.13 1.97t1.47 1.72q.85.76 2.01 1.23 1.15.47 2.75.47 1.79 0 3.13-.59 1.34-.58 2.24-1.52t1.34-2.1q.44-1.15.44-2.32 0-1.48-.31-2.69-.32-1.21-1.31-2.07-1-.85-2.87-1.34-1.87-.48-5-.48v-5.02q2.59-.03 4.3-.48 1.71-.46 2.73-1.27 1.01-.81 1.41-1.95t.4-2.51q0-2.91-1.63-4.42-1.62-1.51-4.33-1.51-1.26 0-2.31.36-1.05.35-1.9.99-.84.65-1.41 1.5-.57.86-.85 1.88-.49 1.31-1.27 1.74t-2.21.2m57.91 8.46q0 5.39-1.15 9.37-1.15 3.97-3.19 6.57-2.04 2.59-4.82 3.86t-6 1.27-5.97-1.27-4.77-3.86q-2.03-2.6-3.17-6.57-1.14-3.98-1.14-9.37 0-5.41 1.14-9.37t3.17-6.56q2.02-2.59 4.77-3.86t5.97-1.27 6 1.27 4.82 3.86q2.04 2.6 3.19 6.56t1.15 9.37m-7.26 0q0-4.47-.66-7.41-.65-2.93-1.75-4.67t-2.52-2.44q-1.43-.69-2.97-.69-1.51 0-2.92.69-1.41.7-2.49 2.44-1.09 1.74-1.73 4.67-.64 2.94-.64 7.41 0 4.48.64 7.41.64 2.94 1.73 4.68 1.08 1.74 2.49 2.44 1.41.69 2.92.69 1.54 0 2.97-.69 1.42-.7 2.52-2.44t1.75-4.68q.66-2.93.66-7.41m52.52 11.18-3.73 3.67-9.66-9.66-9.75 9.72-3.73-3.68 9.74-9.77-9.29-9.29 3.71-3.71 9.29 9.29 9.23-9.23 3.76 3.7-9.26 9.27zm34.32 2.87h10.57q1.14 0 1.81.65.67.64.67 1.69v4.22h-28.27v-2.34q0-.71.3-1.49.3-.79.95-1.41l12.51-12.54q1.57-1.6 2.81-3.05 1.24-1.46 2.07-2.88.82-1.43 1.26-2.89.45-1.47.45-3.1 0-1.48-.43-2.6-.43-1.13-1.21-1.9-.79-.77-1.88-1.15-1.1-.39-2.47-.39-1.25 0-2.32.36-1.07.35-1.9.99-.82.65-1.39 1.5-.57.86-.86 1.88-.48 1.31-1.25 1.74t-2.23.2l-3.7-.66q.43-2.96 1.65-5.2 1.23-2.23 3.07-3.73 1.83-1.5 4.21-2.25 2.38-.76 5.12-.76 2.85 0 5.22.84 2.36.84 4.04 2.38t2.62 3.71q.95 2.16.95 4.81 0 2.29-.67 4.22-.67 1.94-1.8 3.71t-2.64 3.42-3.16 3.36l-9.29 9.49q1.34-.4 2.66-.61 1.33-.22 2.53-.22m37.76 1.29h7.41v5.27h-22.8v-5.27h8.35v-24.03q0-1.42.08-2.93l-5.92 4.96q-.52.39-1.02.49-.49.1-.94.02-.44-.09-.78-.3t-.51-.47l-2.23-3.05 12.57-10.69h5.79zm42.61-15.34q0 5.39-1.16 9.37-1.15 3.97-3.19 6.57-2.04 2.59-4.82 3.86t-6 1.27-5.97-1.27-4.77-3.86q-2.02-2.6-3.16-6.57-1.14-3.98-1.14-9.37 0-5.41 1.14-9.37t3.16-6.56q2.02-2.59 4.77-3.86t5.97-1.27 6 1.27 4.82 3.86q2.04 2.6 3.19 6.56 1.16 3.96 1.16 9.37m-7.27 0q0-4.47-.66-7.41-.65-2.93-1.75-4.67t-2.52-2.44q-1.43-.69-2.97-.69-1.51 0-2.92.69-1.41.7-2.49 2.44t-1.73 4.67q-.64 2.94-.64 7.41 0 4.48.64 7.41.65 2.94 1.73 4.68t2.49 2.44q1.41.69 2.92.69 1.54 0 2.97-.69 1.42-.7 2.52-2.44t1.75-4.68q.66-2.93.66-7.41"/></svg>